<svg xmlns="http://www.w3.org/2000/svg" viewBox="0 0 142 284" width="142" height="284">
	<style>
		tspan { white-space:pre }
		.shp0 { fill: none } 
		.shp1 { fill: #4285f5 } 
		.shp2 { fill: #ffffff } 
	</style>
	<g id="Layer">
		<path id="Layer" class="shp0" d="M0 -0.1L142.1 -0.1L142.1 284.1L0 284.1L0 -0.1Z" />
		<g id="Layer">
			<path id="Layer" class="shp1" d="M0 -0.1C-78.5 -0.1 -142.1 63.5 -142.1 142C-142.1 220.5 -78.5 284.1 0 284.1C78.5 284.1 142.1 220.5 142.1 142C142.1 105.6 128.4 72.4 105.9 47.2L142.1 47.2L142.1 -0.1L0 -0.1L0 -0.1Z" />
		</g>
		<path id="Layer" class="shp2" d="M-94.4 162.3C-91 211.5 -50.1 250.4 0 250.4C50 250.4 91 211.5 94.4 162.3L62.8 162.3C59.5 194 32.6 218.9 0 218.9C-32.6 218.9 -59.5 194.1 -62.8 162.3L-94.4 162.3L-94.4 162.3Z" />
	</g>
</svg>